#!OML:ASF F:\VICON\USERDATA\INSTALL\rory3\rory3.ASF
:FULLY-SPECIFIED
:DEGREES
423
root -12.7608 18.0199 15.0486 -7.27328 -44.4495 7.11763
lowerback 9.35373 -1.11934 -5.00994
upperback 0.422229 -2.00988 0.460333
thorax -4.62058 -0.887579 3.56395
lowerneck -20.2168 -3.8865 -9.05361
upperneck 26.992 -4.32363 5.42968
head 12.6734 -2.19989 2.87546
rclavicle 5.3324e-014 -3.18055e-015
rhumerus -42.1264 -18.9496 -74.699
rradius 26.8188
rwrist 13.5853
rhand -10.8163 7.27287
rfingers 7.12502
rthumb 15.1974 -22.149
lclavicle 5.3324e-014 -3.18055e-015
lhumerus -32.5418 0.0637092 83.1579
lradius 38.7299
lwrist -5.58866
lhand -16.1793 24.9904
lfingers 7.12502
lthumb 10.0272 54.7316
rfemur -22.5068 2.3153 17.798
rtibia 31.033
rfoot -4.28607 -6.41605
rtoes 12.8612
lfemur 14.0063 -4.08664 -28.0731
ltibia 21.6163
lfoot -1.77102 -8.95113
ltoes -14.6667
424
root -12.876 18.0359 15.1399 -6.75514 -44.6121 6.20581
lowerback 9.54907 -1.08396 -4.28113
upperback 0.298449 -1.88372 0.702493
thorax -4.88649 -0.828473 3.39977
lowerneck -20.1965 -3.92959 -9.26046
upperneck 27.2775 -4.32983 5.41541
head 12.7916 -2.23265 2.90893
rclavicle 2.90723e-014 -2.78299e-014
rhumerus -42.4078 -18.8271 -74.4354
rradius 26.7356
rwrist 13.1362
rhand -10.9375 7.21579
rfingers 7.12502
rthumb 15.0807 -22.2149
lclavicle 2.90723e-014 -2.78299e-014
lhumerus -32.8473 0.476871 83.3762
lradius 38.0708
lwrist -5.9938
lhand -16.1654 25.6417
lfingers 7.12502
lthumb 10.0406 55.3822
rfemur -21.7886 2.14686 18.6627
rtibia 30.9806
rfoot -4.69548 -6.05056
rtoes 12.1145
lfemur 13.1316 -4.04027 -27.2109
ltibia 24.0569
lfoot -0.397349 -9.34037
ltoes -13.3273
425
root -12.9913 18.0496 15.2303 -6.33637 -44.6907 5.39446
lowerback 9.6603 -1.08333 -3.62272
upperback 0.288087 -1.80509 0.899029
thorax -4.97983 -0.800233 3.22772
lowerneck -20.2571 -3.99062 -9.42672
upperneck 27.4105 -4.35603 5.39978
head 12.8657 -2.26547 2.92834
rclavicle 5.51379e-014 -9.54166e-015
rhumerus -42.4526 -18.7956 -74.2643
rradius 26.5518
rwrist 12.9218
rhand -11.1733 7.23654
rfingers 7.12502
rthumb 14.8536 -22.211
lclavicle 5.51379e-014 -9.54166e-015
lhumerus -32.9605 0.962558 83.5063
lradius 37.2939
lwrist -6.49529
lhand -15.7036 25.9995
lfingers 7.12502
lthumb 10.486 55.718
rfemur -20.9871 1.99446 19.3629
rtibia 30.8593
rfoot -5.33365 -6.20049
rtoes 11.8687
lfemur 12.1946 -3.74542 -26.3138
ltibia 26.5525
lfoot 1.20666 -9.9882
ltoes -11.7883
426
root -13.1083 18.0594 15.3229 -6.21564 -44.8422 5.03729
lowerback 9.65819 -1.03353 -3.29774
upperback 0.351269 -1.70022 0.943246
thorax -4.92856 -0.757884 3.07535
lowerneck -20.367 -3.99746 -9.33382
upperneck 27.3605 -4.38123 5.39648
head 12.8672 -2.26378 2.90538
rclavicle -2.70347e-014 2.38542e-015
rhumerus -42.4093 -19.0616 -74.1627
rradius 26.355
rwrist 12.9334
rhand -11.3026 7.24046
rfingers 7.12502
rthumb 14.729 -22.2163
lclavicle -2.70347e-014 2.38542e-015
lhumerus -32.9181 1.35953 83.4786
lradius 36.5322
lwrist -6.81091
lhand -16.0281 25.8913
lfingers 7.12502
lthumb 10.173 55.6253
rfemur -20.239 1.74221 19.7229
rtibia 30.7406
rfoot -5.88504 -5.87985
rtoes 11.3956
lfemur 11.188 -3.25595 -25.7153
ltibia 28.9937
lfoot 3.50194 -10.6883
ltoes -8.27672
427
root -13.2264 18.0656 15.412 -6.26218 -45.0012 4.84418
lowerback 9.75196 -0.947163 -3.17704
upperback 0.375632 -1.5722 0.99871
thorax -4.96693 -0.696492 3.05051
lowerneck -20.2894 -3.99103 -9.29779
upperneck 27.2346 -4.37362 5.35971
head 12.7974 -2.2602 2.88447
rclavicle 5.45664e-014 -1.59028e-015
rhumerus -42.4817 -19.2476 -73.9738
rradius 26.2811
rwrist 12.9012
rhand -11.1235 7.00575
rfingers 7.12502
rthumb 14.9015 -22.4383
lclavicle 5.45664e-014 -1.59028e-015
lhumerus -33.0121 1.86152 83.5056
lradius 35.8323
lwrist -7.01047
lhand -16.6991 25.88
lfingers 7.12502
lthumb 9.52568 55.6447
rfemur -19.5095 1.43072 20.0091
rtibia 30.6699
rfoot -6.07069 -5.14529
rtoes 9.92261
lfemur 10.2051 -2.75179 -25.2138
ltibia 31.328
lfoot 6.27506 -11.1775
ltoes -3.45231
428
root -13.3431 18.0762 15.4983 -6.22296 -45.1586 4.61386
lowerback 9.77192 -0.830748 -2.98055
upperback 0.387548 -1.39344 1.05025
thorax -4.98222 -0.612131 2.96974
lowerneck -20.1362 -4.03886 -9.34874
upperneck 27.093 -4.42551 5.33501
head 12.7146 -2.29136 2.87293
rclavicle -3.21037e-014 7.95139e-015
rhumerus -42.5997 -19.7633 -73.5539
rradius 26.1163
rwrist 13.3832
rhand -10.8543 7.14538
rfingers 7.12502
rthumb 15.1608 -22.2793
lclavicle -3.21037e-014 7.95139e-015
lhumerus -33.1806 2.38614 83.565
lradius 35.245
lwrist -7.51904
lhand -16.6683 25.7507
lfingers 7.12502
lthumb 9.55543 55.5141
rfemur -18.8744 1.27106 20.317
rtibia 30.6372
rfoot -6.34739 -4.69663
rtoes 9.23546
lfemur 9.14265 -2.30032 -24.6845
ltibia 33.564
lfoot 9.1336 -11.3721
ltoes 1.35807
429
root -13.4597 18.0893 15.5838 -6.11865 -45.293 4.29656
lowerback 9.7182 -0.746181 -2.72413
upperback 0.474009 -1.24905 1.08964
thorax -4.87626 -0.549781 2.84385
lowerneck -20.0946 -4.06978 -9.30951
upperneck 26.9294 -4.47415 5.32352
head 12.643 -2.30731 2.85097
rclavicle -7.39727e-014 0
rhumerus -42.5148 -20.1317 -73.3924
rradius 25.9704
rwrist 13.7226
rhand -10.6451 7.17242
rfingers 7.12502
rthumb 15.3624 -22.2369
lclavicle -7.39727e-014 0
lhumerus -33.2322 2.80307 83.5719
lradius 34.6585
lwrist -8.02498
lhand -16.6352 25.5404
lfingers 7.12502
lthumb 9.58737 55.3022
rfemur -18.1898 1.20414 20.6803
rtibia 30.5515
rfoot -6.82206 -4.62339
rtoes 9.24671
lfemur 8.0572 -1.92273 -24.1027
ltibia 35.7365
lfoot 11.6986 -11.948
ltoes 3.59402
430
root -13.5782 18.1002 15.6671 -5.9551 -45.3478 3.98732
lowerback 9.59687 -0.689923 -2.58175
upperback 0.573359 -1.15212 1.16437
thorax -4.71205 -0.508905 2.82425
lowerneck -20.2788 -4.11172 -9.22202
upperneck 26.8918 -4.53004 5.28881
head 12.667 -2.3228 2.81111
rclavicle 2.01021e-014 2.38542e-015
rhumerus -42.3597 -19.5287 -73.8246
rradius 26.3392
rwrist 12.9401
rhand -10.429 6.59102
rfingers 7.12502
rthumb 15.5705 -22.8022
lclavicle 2.01021e-014 2.38542e-015
lhumerus -33.2189 3.05199 83.6552
lradius 34.1387
lwrist -8.25424
lhand -16.6764 25.6851
lfingers 7.12502
lthumb 9.54762 55.4488
rfemur -17.5564 1.0469 21.0439
rtibia 30.4234
rfoot -7.2999 -4.51263
rtoes 9.94024
lfemur 6.86497 -1.69474 -23.5189
ltibia 37.8189
lfoot 14.0937 -13.0173
ltoes 5.54238
431
root -13.6987 18.1151 15.7459 -5.67113 -45.37 3.55296
lowerback 9.53248 -0.615733 -2.40737
upperback 0.586083 -1.02768 1.28153
thorax -4.67186 -0.450911 2.83024
lowerneck -20.3502 -4.16405 -9.24991
upperneck 26.8774 -4.59388 5.31378
head 12.6831 -2.34855 2.81371
rclavicle -5.99584e-014 2.70347e-014
rhumerus -42.3843 -18.5603 -74.3524
rradius 26.9441
rwrist 11.7988
rhand -10.3509 6.06205
rfingers 7.12502
rthumb 15.6457 -23.3253
lclavicle -5.99584e-014 2.70347e-014
lhumerus -33.3953 3.08394 83.7996
lradius 33.8307
lwrist -8.56859
lhand -16.0246 26.0986
lfingers 7.12502
lthumb 10.1764 55.8324
rfemur -16.9047 1.10693 21.5013
rtibia 30.2506
rfoot -7.73719 -4.48313
rtoes 10.9345
lfemur 5.59986 -1.70462 -22.8836
ltibia 39.8391
lfoot 16.2509 -14.0542
ltoes 9.57413
432
root -13.8175 18.1301 15.8277 -5.38711 -45.3612 3.04806
lowerback 9.51275 -0.52623 -2.13211
upperback 0.603382 -0.87323 1.40341
thorax -4.65501 -0.379798 2.78115
lowerneck -20.2841 -4.26142 -9.43372
upperneck 26.805 -4.73215 5.50343
head 12.6639 -2.40301 2.8939
rclavicle 1.86609e-014 -1.59028e-015
rhumerus -42.4141 -18.0553 -74.5773
rradius 27.2519
rwrist 11.3165
rhand -10.4255 6.11789
rfingers 7.12502
rthumb 15.5738 -23.2751
lclavicle 1.86609e-014 -1.59028e-015
lhumerus -33.6205 2.94273 84.0099
lradius 33.6521
lwrist -9.14344
lhand -14.9799 26.8376
lfingers 7.12502
lthumb 11.1841 56.5195
rfemur -16.1618 1.05902 22.0108
rtibia 30.0308
rfoot -8.08715 -4.48955
rtoes 11.0633
lfemur 4.44547 -1.80527 -22.2451
ltibia 41.7779
lfoot 17.8547 -14.7774
ltoes 14.5889
433
root -13.9331 18.1363 15.9104 -5.05957 -45.3711 2.35889
lowerback 9.5351 -0.464709 -1.66817
upperback 0.698456 -0.738845 1.50182
thorax -4.58106 -0.324582 2.60326
lowerneck -20.3413 -4.30578 -9.40444
upperneck 26.7622 -4.83983 5.64163
head 12.6709 -2.42695 2.92301
rclavicle 5.07398e-014 7.15625e-015
rhumerus -42.1861 -18.2819 -74.5468
rradius 26.9726
rwrist 11.747
rhand -10.6871 6.53308
rfingers 7.12502
rthumb 15.3219 -22.8793
lclavicle 5.07398e-014 7.15625e-015
lhumerus -33.6897 2.75027 84.1292
lradius 33.3744
lwrist -9.668
lhand -14.2838 26.9339
lfingers 7.12502
lthumb 11.8555 56.5783
rfemur -15.3276 0.892968 22.6574
rtibia 29.7835
rfoot -8.44798 -4.44343
rtoes 11.678
lfemur 3.42911 -1.7793 -21.4507
ltibia 43.6797
lfoot 18.5438 -15.5673
ltoes 17.5101
434
root -14.048 18.1431 15.9927 -4.72035 -45.3772 1.68462
lowerback 9.56604 -0.439874 -1.24309
upperback 0.766086 -0.656278 1.63122
thorax -4.53562 -0.292807 2.48704
lowerneck -20.4601 -4.26645 -9.23199
upperneck 26.807 -4.79645 5.52832
head 12.7004 -2.40315 2.85721
rclavicle 3.35946e-014 -3.97569e-015
rhumerus -41.8817 -18.4154 -74.477
rradius 26.5828
rwrist 12.3459
rhand -10.8072 6.99561
rfingers 7.12502
rthumb 15.2062 -22.4256
lclavicle 3.35946e-014 -3.97569e-015
lhumerus -33.8448 2.66382 84.2824
lradius 33.1093
lwrist -9.97719
lhand -14.087 26.4861
lfingers 7.12502
lthumb 12.0453 56.1194
rfemur -14.5475 0.742015 23.2899
rtibia 29.558
rfoot -8.77861 -4.38893
rtoes 12.6712
lfemur 2.43538 -1.78074 -20.7226
ltibia 45.4992
lfoot 18.1405 -16.3326
ltoes 16.8298
435
root -14.1592 18.1436 16.0708 -4.3474 -45.3387 1.00876
lowerback 9.61848 -0.414278 -0.816993
upperback 0.791161 -0.57256 1.74905
thorax -4.54605 -0.259254 2.35885
lowerneck -20.5353 -4.31954 -9.20173
upperneck 26.8738 -4.88717 5.55264
head 12.7507 -2.43634 2.84622
rclavicle -7.50412e-014 1.11319e-014
rhumerus -41.5955 -18.277 -74.5592
rradius 26.3395
rwrist 12.7802
rhand -10.6373 7.44399
rfingers 7.12502
rthumb 15.3699 -21.9647
lclavicle -7.50412e-014 1.11319e-014
lhumerus -33.9783 2.37335 84.4937
lradius 32.8295
lwrist -10.2103
lhand -14.0944 25.9898
lfingers 7.12502
lthumb 12.038 55.6235
rfemur -13.8471 0.788447 23.9253
rtibia 29.3944
rfoot -9.14825 -4.59557
rtoes 13.0162
lfemur 1.39596 -1.92623 -20.0161
ltibia 47.2288
lfoot 17.0213 -16.5358
ltoes 14.7013
436
root -14.2651 18.1423 16.1464 -3.91193 -45.365 0.291024
lowerback 9.63273 -0.356103 -0.317396
upperback 0.846231 -0.439388 1.84094
thorax -4.50574 -0.203544 2.15452
lowerneck -20.6688 -4.36554 -9.11686
upperneck 26.9039 -4.98083 5.58655
head 12.7968 -2.4618 2.82812
rclavicle -6.34869e-014 -1.51076e-014
rhumerus -41.1831 -17.9291 -74.8495
rradius 26.1562
rwrist 12.9886
rhand -10.6987 7.99902
rfingers 7.12502
rthumb 15.3108 -21.4142
lclavicle -6.34869e-014 -1.51076e-014
lhumerus -34.0305 1.86486 84.7444
lradius 32.6724
lwrist -10.2592
lhand -14.1635 25.7632
lfingers 7.12502
lthumb 11.9715 55.4008
rfemur -13.2279 0.893953 24.5975
rtibia 29.2797
rfoot -9.5473 -4.82857
rtoes 12.0601
lfemur 0.318681 -1.94513 -19.2569
ltibia 48.8181
lfoot 15.3159 -16.4789
ltoes 11.3632
437
root -14.3681 18.1392 16.2224 -3.72769 -45.4956 -0.137688
lowerback 9.7735 -0.253241 -0.0791437
upperback 0.862715 -0.273374 1.91819
thorax -4.57452 -0.125439 2.08001
lowerneck -20.7247 -4.34388 -9.03312
upperneck 26.955 -4.99316 5.64059
head 12.8286 -2.45087 2.83346
rclavicle 3.58309e-014 9.54166e-015
rhumerus -40.8253 -17.518 -75.0821
rradius 26.0336
rwrist 13.3163
rhand -10.981 8.59764
rfingers 7.12502
rthumb 15.0388 -20.8362
lclavicle 3.58309e-014 9.54166e-015
lhumerus -34.1882 1.49403 85.0059
lradius 32.5614
lwrist -10.2421
lhand -13.9146 25.5496
lfingers 7.12502
lthumb 12.2114 55.1731
rfemur -12.6045 1.0276 25.0371
rtibia 29.2261
rfoot -10.0025 -4.92356
rtoes 11.624
lfemur -0.678919 -1.83014 -18.7737
ltibia 50.2443
lfoot 13.1423 -16.4346
ltoes 6.96846
